<svg width="721" height="584" viewBox="0 0 721 584" fill="none" xmlns="http://www.w3.org/2000/svg">
<g opacity="0.5" filter="url(#filter0_f_11_47)">
<path fill-rule="evenodd" clip-rule="evenodd" d="M296.802 217.124C314.219 213.509 332.727 213.348 347.547 224.111C365.628 237.244 382.167 256.457 383.844 280.341C385.602 305.404 375.267 332.598 356.105 346.054C338.704 358.272 317.391 342.201 296.802 341.461C277.555 340.768 257.359 353.581 241.23 341.922C223.039 328.773 207.363 303.792 212.247 280.341C216.979 257.617 244.622 254.896 262.068 241.852C273.928 232.986 282.741 220.042 296.802 217.124Z" fill="#FFE3B7"/>
</g>
<g opacity="0.5" filter="url(#filter1_f_11_47)">
<path fill-rule="evenodd" clip-rule="evenodd" d="M300.244 116C316.911 116.657 334.357 114.657 347.515 126.009C362.142 138.629 372.146 157.854 372.558 178.39C372.978 199.299 364.091 219.667 349.667 233.155C336.222 245.727 317.686 248.553 300.244 246.012C284.987 243.789 273.53 232.096 262.309 220.426C250.531 208.178 237.53 196.105 235.219 178.39C232.605 158.354 235.677 135.399 249.488 122.147C262.864 109.314 282.563 115.304 300.244 116Z" fill="#C19E66"/>
</g>
<g opacity="0.5" filter="url(#filter2_f_11_47)">
<path fill-rule="evenodd" clip-rule="evenodd" d="M284.882 309.154C304.257 304.325 327.24 293.529 342.183 308.023C357.235 322.622 349.928 349.368 349.183 371.518C348.482 392.367 349.188 413.618 338.066 430.452C325.074 450.117 306.412 473.827 284.882 468.841C263.368 463.858 264.314 428.64 250.087 410.075C238.232 394.605 210.679 391.809 210.302 371.518C209.925 351.265 234.031 343.543 248.624 331.34C260.08 321.76 270.879 312.644 284.882 309.154Z" fill="#656A90"/>
</g>
<g opacity="0.5" filter="url(#filter3_f_11_47)">
<path fill-rule="evenodd" clip-rule="evenodd" d="M540.279 194.327C559.654 189.499 582.637 178.703 597.58 193.196C612.632 207.795 605.324 234.541 604.579 256.692C603.878 277.54 604.585 298.791 593.463 315.625C580.47 335.291 561.808 359.001 540.279 354.014C518.765 349.031 519.711 313.814 505.484 295.249C493.629 279.778 466.076 276.983 465.698 256.692C465.322 236.439 489.428 228.716 504.021 216.514C515.477 206.934 526.276 197.817 540.279 194.327Z" fill="#656A90"/>
</g>
<g opacity="0.5" filter="url(#filter4_f_11_47)">
<path fill-rule="evenodd" clip-rule="evenodd" d="M188.585 122.416C207.96 117.587 230.942 106.791 245.886 121.285C260.938 135.884 253.63 162.63 252.885 184.78C252.184 205.629 252.891 226.88 241.769 243.714C228.776 263.379 210.114 287.089 188.585 282.103C167.071 277.12 168.017 241.902 153.79 223.337C141.935 207.867 114.381 205.071 114.004 184.78C113.628 164.527 137.734 156.805 152.327 144.602C163.783 135.022 174.582 125.906 188.585 122.416Z" fill="#4A4159"/>
</g>
<g opacity="0.5" filter="url(#filter5_f_11_47)">
<path fill-rule="evenodd" clip-rule="evenodd" d="M413.614 224.191C435.366 223.801 446.681 251.972 460.1 270.946C471.187 286.622 482.698 302.544 483.113 322.456C483.536 342.781 473.712 360.485 462.298 376.402C448.88 395.114 434.79 423.914 413.614 419.375C391.938 414.729 395.238 377.34 380.713 358.914C368.279 343.142 340.115 343.15 337.214 322.456C334.295 301.635 356.198 288.549 368.61 272.586C382.794 254.342 391.886 224.58 413.614 224.191Z" fill="#FFE3B7"/>
</g>
<g opacity="0.5" filter="url(#filter6_f_11_47)">
<path fill-rule="evenodd" clip-rule="evenodd" d="M438.826 300.757C457.108 301.336 471.184 315.87 484.918 329.254C500.067 344.016 517.908 358.157 520.48 380.328C523.289 404.551 517.567 434.194 498.513 446.467C480.261 458.225 459.189 439.101 438.826 432.926C426.596 429.218 415.914 424.786 404.787 418.047C385.683 406.477 355.799 404.079 351.979 380.328C348.217 356.936 373.498 341.39 390.023 326.249C404.432 313.048 420.138 300.166 438.826 300.757Z" fill="#47321E"/>
</g>
<g opacity="0.5" filter="url(#filter7_f_11_47)">
<path fill-rule="evenodd" clip-rule="evenodd" d="M487.505 197.769C502.121 200.049 516.746 197.336 529.52 205.531C547.473 217.05 568.896 229.388 572.167 252.088C575.654 276.29 564.344 303.532 545.485 316.337C528.259 328.033 507.035 315.301 487.505 309.573C474.677 305.81 464.578 298.012 453.794 289.444C439.353 277.97 419.41 271.205 415.155 252.088C410.327 230.394 415.029 202.809 431.723 190.276C447.842 178.174 468.224 194.761 487.505 197.769Z" fill="#FFE3B7"/>
</g>
<g opacity="0.5" filter="url(#filter8_f_11_47)">
<path fill-rule="evenodd" clip-rule="evenodd" d="M406.145 114.026C425.75 114.994 428.927 146.585 443.321 161.367C458.961 177.428 489.587 179.133 492.358 202.561C495.125 225.945 469.409 239.315 454.538 256.185C439.356 273.408 427.664 303.689 406.145 300.363C384.412 297.004 380.453 264.19 369.6 243.057C362.912 230.034 356.634 217.524 355.917 202.561C355.149 186.549 357.8 171.099 365.502 157.524C375.923 139.156 386.584 113.06 406.145 114.026Z" fill="#C19E66"/>
</g>
<defs>
<filter id="filter0_f_11_47" x="97.3439" y="100.908" width="400.693" height="363.715" filterUnits="userSpaceOnUse" color-interpolation-filters="sRGB">
<feFlood flood-opacity="0" result="BackgroundImageFix"/>
<feBlend mode="normal" in="SourceGraphic" in2="BackgroundImageFix" result="shape"/>
<feGaussianBlur stdDeviation="57" result="effect1_foregroundBlur_11_47"/>
</filter>
<filter id="filter1_f_11_47" x="120.371" y="0" width="366.201" height="360.863" filterUnits="userSpaceOnUse" color-interpolation-filters="sRGB">
<feFlood flood-opacity="0" result="BackgroundImageFix"/>
<feBlend mode="normal" in="SourceGraphic" in2="BackgroundImageFix" result="shape"/>
<feGaussianBlur stdDeviation="57" result="effect1_foregroundBlur_11_47"/>
</filter>
<filter id="filter2_f_11_47" x="96.2972" y="186.738" width="369.31" height="396.776" filterUnits="userSpaceOnUse" color-interpolation-filters="sRGB">
<feFlood flood-opacity="0" result="BackgroundImageFix"/>
<feBlend mode="normal" in="SourceGraphic" in2="BackgroundImageFix" result="shape"/>
<feGaussianBlur stdDeviation="57" result="effect1_foregroundBlur_11_47"/>
</filter>
<filter id="filter3_f_11_47" x="351.694" y="71.9115" width="369.31" height="396.776" filterUnits="userSpaceOnUse" color-interpolation-filters="sRGB">
<feFlood flood-opacity="0" result="BackgroundImageFix"/>
<feBlend mode="normal" in="SourceGraphic" in2="BackgroundImageFix" result="shape"/>
<feGaussianBlur stdDeviation="57" result="effect1_foregroundBlur_11_47"/>
</filter>
<filter id="filter4_f_11_47" x="0" y="0" width="369.31" height="396.776" filterUnits="userSpaceOnUse" color-interpolation-filters="sRGB">
<feFlood flood-opacity="0" result="BackgroundImageFix"/>
<feBlend mode="normal" in="SourceGraphic" in2="BackgroundImageFix" result="shape"/>
<feGaussianBlur stdDeviation="57" result="effect1_foregroundBlur_11_47"/>
</filter>
<filter id="filter5_f_11_47" x="222.949" y="110.187" width="374.177" height="423.667" filterUnits="userSpaceOnUse" color-interpolation-filters="sRGB">
<feFlood flood-opacity="0" result="BackgroundImageFix"/>
<feBlend mode="normal" in="SourceGraphic" in2="BackgroundImageFix" result="shape"/>
<feGaussianBlur stdDeviation="57" result="effect1_foregroundBlur_11_47"/>
</filter>
<filter id="filter6_f_11_47" x="237.603" y="186.738" width="397.551" height="377.475" filterUnits="userSpaceOnUse" color-interpolation-filters="sRGB">
<feFlood flood-opacity="0" result="BackgroundImageFix"/>
<feBlend mode="normal" in="SourceGraphic" in2="BackgroundImageFix" result="shape"/>
<feGaussianBlur stdDeviation="57" result="effect1_foregroundBlur_11_47"/>
</filter>
<filter id="filter7_f_11_47" x="299.359" y="71.9115" width="387.437" height="363.206" filterUnits="userSpaceOnUse" color-interpolation-filters="sRGB">
<feFlood flood-opacity="0" result="BackgroundImageFix"/>
<feBlend mode="normal" in="SourceGraphic" in2="BackgroundImageFix" result="shape"/>
<feGaussianBlur stdDeviation="57" result="effect1_foregroundBlur_11_47"/>
</filter>
<filter id="filter8_f_11_47" x="241.79" y="0" width="364.775" height="414.616" filterUnits="userSpaceOnUse" color-interpolation-filters="sRGB">
<feFlood flood-opacity="0" result="BackgroundImageFix"/>
<feBlend mode="normal" in="SourceGraphic" in2="BackgroundImageFix" result="shape"/>
<feGaussianBlur stdDeviation="57" result="effect1_foregroundBlur_11_47"/>
</filter>
</defs>
</svg>
